<svg viewBox="0 0 330 200" xmlns="http://www.w3.org/2000/svg"><g><g><g><g><g><line x1="42.390625" y1="177" x2="37.390625" y2="177" style="visibility: inherit;" fill="rgb(0, 0, 0)" stroke="rgb(204, 204, 204)" stroke-width="1px"></line><line x1="42.390625" y1="157.33333333333334" x2="37.390625" y2="157.33333333333334" style="visibility: inherit;" fill="rgb(0, 0, 0)" stroke="rgb(204, 204, 204)" stroke-width="1px"></line><line x1="42.390625" y1="137.66666666666666" x2="37.390625" y2="137.66666666666666" style="visibility: inherit;" fill="rgb(0, 0, 0)" stroke="rgb(204, 204, 204)" stroke-width="1px"></line><line x1="42.390625" y1="118" x2="37.390625" y2="118" style="visibility: inherit;" fill="rgb(0, 0, 0)" stroke="rgb(204, 204, 204)" stroke-width="1px"></line><line x1="42.390625" y1="98.33333333333333" x2="37.390625" y2="98.33333333333333" style="visibility: inherit;" fill="rgb(0, 0, 0)" stroke="rgb(204, 204, 204)" stroke-width="1px"></line><line x1="42.390625" y1="78.66666666666664" x2="37.390625" y2="78.66666666666664" style="visibility: inherit;" fill="rgb(0, 0, 0)" stroke="rgb(204, 204, 204)" stroke-width="1px"></line><line x1="42.390625" y1="59" x2="37.390625" y2="59" style="visibility: inherit;" fill="rgb(0, 0, 0)" stroke="rgb(204, 204, 204)" stroke-width="1px"></line><line x1="42.390625" y1="39.33333333333334" x2="37.390625" y2="39.33333333333334" style="visibility: inherit;" fill="rgb(0, 0, 0)" stroke="rgb(204, 204, 204)" stroke-width="1px"></line><line x1="42.390625" y1="19.666666666666686" x2="37.390625" y2="19.666666666666686" style="visibility: inherit;" fill="rgb(0, 0, 0)" stroke="rgb(204, 204, 204)" stroke-width="1px"></line><line x1="42.390625" y1="0" x2="37.390625" y2="0" style="visibility: inherit;" fill="rgb(0, 0, 0)" stroke="rgb(204, 204, 204)" stroke-width="1px"></line></g><g transform="translate(32.390625, 0)"><text x="0" y="177" dx="0em" dy="0.3em" style="text-anchor: end; visibility: hidden; font-family: &quot;Helvetica Neue&quot;, sans-serif; font-size: 12px; font-weight: 200;" fill="rgb(50, 49, 63)" stroke="none" stroke-width="1px">1.2</text><text x="0" y="157.33333333333334" dx="0em" dy="0.3em" style="text-anchor: end; visibility: inherit; font-family: &quot;Helvetica Neue&quot;, sans-serif; font-size: 12px; font-weight: 200;" fill="rgb(50, 49, 63)" stroke="none" stroke-width="1px">1.4</text><text x="0" y="137.66666666666666" dx="0em" dy="0.3em" style="text-anchor: end; visibility: hidden; font-family: &quot;Helvetica Neue&quot;, sans-serif; font-size: 12px; font-weight: 200;" fill="rgb(50, 49, 63)" stroke="none" stroke-width="1px">1.6</text><text x="0" y="118" dx="0em" dy="0.3em" style="text-anchor: end; visibility: inherit; font-family: &quot;Helvetica Neue&quot;, sans-serif; font-size: 12px; font-weight: 200;" fill="rgb(50, 49, 63)" stroke="none" stroke-width="1px">1.8</text><text x="0" y="98.33333333333333" dx="0em" dy="0.3em" style="text-anchor: end; visibility: hidden; font-family: &quot;Helvetica Neue&quot;, sans-serif; font-size: 12px; font-weight: 200;" fill="rgb(50, 49, 63)" stroke="none" stroke-width="1px">2</text><text x="0" y="78.66666666666664" dx="0em" dy="0.3em" style="text-anchor: end; visibility: inherit; font-family: &quot;Helvetica Neue&quot;, sans-serif; font-size: 12px; font-weight: 200;" fill="rgb(50, 49, 63)" stroke="none" stroke-width="1px">2.2</text><text x="0" y="59" dx="0em" dy="0.3em" style="text-anchor: end; visibility: hidden; font-family: &quot;Helvetica Neue&quot;, sans-serif; font-size: 12px; font-weight: 200;" fill="rgb(50, 49, 63)" stroke="none" stroke-width="1px">2.4</text><text x="0" y="39.33333333333334" dx="0em" dy="0.3em" style="text-anchor: end; visibility: inherit; font-family: &quot;Helvetica Neue&quot;, sans-serif; font-size: 12px; font-weight: 200;" fill="rgb(50, 49, 63)" stroke="none" stroke-width="1px">2.6</text><text x="0" y="19.666666666666686" dx="0em" dy="0.3em" style="text-anchor: end; visibility: hidden; font-family: &quot;Helvetica Neue&quot;, sans-serif; font-size: 12px; font-weight: 200;" fill="rgb(50, 49, 63)" stroke="none" stroke-width="1px">2.8</text><text x="0" y="0" dx="0em" dy="0.3em" style="text-anchor: end; visibility: hidden; font-family: &quot;Helvetica Neue&quot;, sans-serif; font-size: 12px; font-weight: 200;" fill="rgb(50, 49, 63)" stroke="none" stroke-width="1px">3</text></g><line x1="42.390625" y1="0" x2="42.390625" y2="177" fill="rgb(0, 0, 0)" stroke="rgb(204, 204, 204)" stroke-width="1px"></line></g></g><g transform="translate(42, 0)" clip-path="url(#clip_0)"><clipPath id="clip_0"><rect width="287" height="177"></rect></clipPath><g><g><g><line x1="0" y1="0" x2="0" y2="177" fill="rgb(0, 0, 0)" stroke="rgb(60, 60, 60)" stroke-width="1px" opacity="0.25"></line><line x1="31.95659722222222" y1="0" x2="31.95659722222222" y2="177" fill="rgb(0, 0, 0)" stroke="rgb(60, 60, 60)" stroke-width="1px" opacity="0.25"></line><line x1="63.91319444444444" y1="0" x2="63.91319444444444" y2="177" fill="rgb(0, 0, 0)" stroke="rgb(60, 60, 60)" stroke-width="1px" opacity="0.25"></line><line x1="95.86979166666666" y1="0" x2="95.86979166666666" y2="177" fill="rgb(0, 0, 0)" stroke="rgb(60, 60, 60)" stroke-width="1px" opacity="0.25"></line><line x1="127.82638888888889" y1="0" x2="127.82638888888889" y2="177" fill="rgb(0, 0, 0)" stroke="rgb(60, 60, 60)" stroke-width="1px" opacity="0.25"></line><line x1="159.78298611111111" y1="0" x2="159.78298611111111" y2="177" fill="rgb(0, 0, 0)" stroke="rgb(60, 60, 60)" stroke-width="1px" opacity="0.25"></line><line x1="191.73958333333331" y1="0" x2="191.73958333333331" y2="177" fill="rgb(0, 0, 0)" stroke="rgb(60, 60, 60)" stroke-width="1px" opacity="0.25"></line><line x1="223.69618055555557" y1="0" x2="223.69618055555557" y2="177" fill="rgb(0, 0, 0)" stroke="rgb(60, 60, 60)" stroke-width="1px" opacity="0.25"></line><line x1="255.65277777777777" y1="0" x2="255.65277777777777" y2="177" fill="rgb(0, 0, 0)" stroke="rgb(60, 60, 60)" stroke-width="1px" opacity="0.25"></line><line x1="287.609375" y1="0" x2="287.609375" y2="177" fill="rgb(0, 0, 0)" stroke="rgb(60, 60, 60)" stroke-width="1px" opacity="0.25"></line></g><g><line x1="0" y1="177" x2="287.609375" y2="177" fill="rgb(0, 0, 0)" stroke="rgb(60, 60, 60)" stroke-width="1px" opacity="0.25"></line><line x1="0" y1="157.33333333333334" x2="287.609375" y2="157.33333333333334" fill="rgb(0, 0, 0)" stroke="rgb(60, 60, 60)" stroke-width="1px" opacity="0.25"></line><line x1="0" y1="137.66666666666666" x2="287.609375" y2="137.66666666666666" fill="rgb(0, 0, 0)" stroke="rgb(60, 60, 60)" stroke-width="1px" opacity="0.25"></line><line x1="0" y1="118" x2="287.609375" y2="118" fill="rgb(0, 0, 0)" stroke="rgb(60, 60, 60)" stroke-width="1px" opacity="0.25"></line><line x1="0" y1="98.33333333333333" x2="287.609375" y2="98.33333333333333" fill="rgb(0, 0, 0)" stroke="rgb(60, 60, 60)" stroke-width="1px" opacity="0.25"></line><line x1="0" y1="78.66666666666664" x2="287.609375" y2="78.66666666666664" fill="rgb(0, 0, 0)" stroke="rgb(60, 60, 60)" stroke-width="1px" opacity="0.25"></line><line x1="0" y1="59" x2="287.609375" y2="59" fill="rgb(0, 0, 0)" stroke="rgb(60, 60, 60)" stroke-width="1px" opacity="0.25"></line><line x1="0" y1="39.33333333333334" x2="287.609375" y2="39.33333333333334" fill="rgb(0, 0, 0)" stroke="rgb(60, 60, 60)" stroke-width="1px" opacity="0.25"></line><line x1="0" y1="19.666666666666686" x2="287.609375" y2="19.666666666666686" fill="rgb(0, 0, 0)" stroke="rgb(60, 60, 60)" stroke-width="1px" opacity="0.25"></line><line x1="0" y1="0" x2="287.609375" y2="0" fill="rgb(0, 0, 0)" stroke="rgb(60, 60, 60)" stroke-width="1px" opacity="0.25"></line></g></g></g><g><g><line x1="0" y1="295" x2="287.609375" y2="295" fill="rgb(0, 0, 0)" stroke="rgb(153, 153, 153)" stroke-width="1.5px"></line></g></g><g><g><line x1="31.95659722222222" y1="0" x2="31.95659722222222" y2="177" fill="rgb(0, 0, 0)" stroke="rgb(153, 153, 153)" stroke-width="1.5px"></line></g></g><g><g><g><g><g><path stroke="rgb(51, 187, 238)" stroke-width="2px" d="M32.22503263888889,32.83570130666098L32.244206597222224,-1.0670908701789301L32.966425694444446,-6.436981700358984L33.023947569444445,7.339637811959449L33.420209375,6.063921959366354L33.452165972222225,4.876104306256167L33.58638368055556,6.812000558665204L33.701427430555555,6.9701062072242905L33.92512361111111,11.773956723026629L33.93790625,10.786649941976322L33.98903680555556,10.493919996819557L34.64734270833333,9.784925226593884L34.89660416666667,7.811530594510401L34.98608263888889,8.197239674713103L35.38234444444445,10.336650277509762L35.65717118055556,8.943333917978919L35.701910416666664,7.985631721968247L36.00869375,9.509788894018442L36.09178090277778,5.464882517992294L36.24517256944445,7.10813909613654L36.51999930555555,11.495655844187183L36.57112986111111,10.486970783568836L36.884304513888885,13.109558554093695L36.97378298611111,15.400208172892718L37.08243541666667,18.41072907461907L37.120783333333335,21.2774368279797L37.29974027777777,17.892337908342313L37.99639409722223,14.125142962845189L38.16256840277778,13.664207585132544L38.43739513888889,14.56847272215964L38.76974375,17.476412104220913L39.01261388888889,18.198429884558806L39.498354166666665,17.049672541673857L40.016051041666664,18.50076246231106L40.36757361111111,17.66957506352486L40.386747569444445,17.551236242440098L40.47622604166666,17.643322263094944L40.50179131944444,17.712761660353436L40.80857465277778,21.328809328232268L40.85331388888889,23.276397986812043L41.13453194444444,22.129952793082538L41.32627152777778,23.579436366624975L41.69057673611111,24.494141074319117L41.875925,26.99958284180957L41.978186111111114,28.66337832739984L42.080447222222226,28.512379322009934L42.43836111111111,30.386675586770536L42.76431840277778,28.42108746199912L42.87936215277777,26.13395341030912L42.93688402777778,29.256424884097584L43.03914513888889,30.500974277064955L43.05831909722222,30.59273267639341L43.33953715277778,33.2772600658123L43.74219027777777,33.28199642907924L43.88279930555556,33.60335917873002L43.90197326388889,35.60928291173636L43.95310381944444,34.560353649170935L44.20875659722222,33.32800224778177L44.31740902777778,33.03035098933512L44.40049618055556,31.863006648271465L44.96932361111111,33.65570417851586L45.352802777777775,32.7455088204417L45.93441284722222,33.13009384392436L46.01110868055555,33.90668956052588L46.215630902777775,34.71366674301845L46.25397881944445,29.747604597493506L46.38180520833333,29.889436404176053L46.41376180555556,29.000079882439053L46.70137118055556,30.59353339976022L46.778067013888894,28.322711279334413L47.00176319444444,26.128113626595848L47.22545937500001,28.026162588351582L47.23185069444444,26.36643043464133L47.52585138888889,27.681685654952332L47.63450381944445,29.707481889997467L47.64728645833333,29.538599186590545L47.67924305555555,32.15060953863522L47.83902604166666,34.92943391862153L47.84541736111111,37.46396384548132L47.92211319444445,40.3530165648956L47.95406979166667,40.537741087326424L48.13941805555555,40.97952749180405L48.235287847222224,43.867448491715635L48.27363576388888,45.94460878914174L49.11728993055556,45.86381763100118L49.4688125,45.88746530349337L49.78198715277777,46.458076929990824L50.46585833333333,48.03515797583691L50.91964201388889,48.68043868324125L51.37342569444444,51.874493001095644L51.39259965277778,49.50401503917746L51.76329618055555,50.028627742715045L52.15955798611111,48.66566057976016L52.60055902777778,47.97901047229786L52.6900375,46.95259316521262L52.70282013888889,47.69492960618771L52.70921145833333,46.94715289896098L53.07990798611111,48.63281353511496L54.198388888888886,48.251315001500245L54.96534722222223,48.48175392699906L55.08039097222222,49.60857707199037L55.09317361111111,52.494847402723394L55.412739583333334,50.12112355256831L55.77065347222222,47.86359829967981L55.86652326388889,46.97422932176485L56.198871874999995,50.07263592942974L56.33308958333333,50.01295218238873L56.37782881944444,50.01955478610546L57.061699999999995,50.3521321896896L57.24065694444444,50.70549166472229L57.41961388888889,50.00258123472683L57.751962500000005,52.17445822445808L58.14822430555556,53.138771998264474L58.774573611111116,54.403178617809886L58.97270451388889,55.46165981769519L59.00466111111111,53.37028347735678L59.46483611111111,51.19391095792162L59.54792326388889,49.3321120287669L59.56070590277778,49.57660597927827L60.07840277777778,46.64143279343455L60.666404166666666,49.10355872706202L60.775056597222225,49.10133909776381L60.909274305555556,49.7499336457938L61.53562361111111,48.871176519723406L61.76571111111111,49.998223499233276L61.79127638888889,49.81417946284063L61.84240694444445,48.68648083247197L62.315364583333334,49.31940801290315L62.55823472222222,50.678352931284365L62.64771319444444,52.173882233056815L62.89058333333334,52.92484657228715L62.96727916666667,53.91514804318881L63.23571458333333,56.03775783990024L63.67032430555556,55.90515111603405L63.72784618055556,55.23074625378261L63.74702013888889,54.877092508259736L64.23276041666666,55.078810658130806L64.24554305555556,56.038171600932756L64.59067430555555,56.15079134704209L64.76963125,53.85036136988265L65.44071979166667,55.751623225822826L66.01593854166667,55.17057145986803L66.11819965277778,54.822623875743034L66.207678125,57.075200173594055L66.59754861111111,58.09285816136317L67.21750659722223,57.24763881959879L67.42202881944445,56.34643091924188L68.15703055555556,55.33758008523523L68.25290034722222,53.784083048028904L68.53411840277778,52.28288968695816L69.07738055555555,53.50088383916092L69.18603298611112,54.515151718067784L69.20520694444444,52.853716370860695L69.43529444444445,52.769439920161176L69.48003368055555,53.78141068188701L69.71012118055556,54.0519032743174L69.84433888888888,53.7372797801102L70.24060069444445,53.377264504297074L70.36842708333333,54.60847135093209L71.07786354166667,52.434694275932074L71.14177673611111,51.11436834166511L71.58277777777778,53.43132111649764L71.66586493055556,54.36251117296477L71.70421284722222,53.1879756138502L71.7873,54.74431956257888L72.15160520833334,53.21598695799041L72.29860555555555,54.535718077263965L72.33056215277777,55.10952229085399L72.70765,54.37094824460456L72.86104166666668,53.45440780455907L73.47460833333334,56.386584930872075L73.628,60.06721651717386L73.97313125,59.71277461836742L74.15847951388889,57.3160743151262L74.5036107638889,55.77994682128826L74.75287222222222,56.88920785600912L74.77204618055555,58.417226667506625L74.8487420138889,58.07291279121115L75.04687291666667,55.43466152906824L75.71157013888889,58.16919467247847L75.76270069444445,59.51349997569447L75.85857048611112,59.48266937075627L76.47852847222222,59.949314283242614L76.64470277777778,58.26898358010676L76.78531180555555,56.21350101905897L77.37331319444445,55.298973039409105L77.42444375,54.682846578087165L77.68648784722222,54.562828864922295L78.27448923611111,57.84425938188002L78.68353368055554,56.05649157769224L78.862490625,53.12429193456644L78.86888194444444,53.47533649466402L78.9903170138889,52.422973132072016L79.1373173611111,52.66743211533063L79.25875243055555,51.38644833690097L79.57192708333334,51.76404889235545L79.63584027777779,54.02422463172283L79.65501423611111,55.68259104538791L79.75088402777777,58.50518633868471L79.96179756944444,59.394187061354955L81.08666979166667,60.552631336897065L81.12501770833335,60.62411255494668L81.55323611111112,60.87010016818557L81.73219305555554,63.082546775435674L81.79610625,63.600288276758306L82.01980243055554,63.32032680195336L82.44802083333333,63.702600948062326L82.65254305555555,64.84066557526732L83.02963090277778,63.3898040285908L83.25332708333333,62.161859400385765L83.5089798611111,63.677222205388844L84.23759027777777,65.17990904526089L84.46128645833333,67.1995019372163L84.499634375,66.89327868740435L84.94063541666667,66.6732346840427L85.22185347222224,67.32186629871484L85.4072017361111,68.51612926616893L85.43915833333332,69.05148475014894L85.49668020833333,71.41880649452496L86.07189895833334,73.92771712542222L86.09107291666668,73.83156928079524L86.2700298611111,74.47662884394742L86.33394305555555,73.96279225185803L86.70463958333333,72.94917420787364L86.92833576388888,72.35473678245795L87.145640625,72.9697718423638L87.52911979166667,73.0587167559426L88.32164340277778,73.7726526318975L88.34081736111112,73.97326181529817L88.69873125000001,73.12451626636188L88.86490555555557,70.7156401330837L88.88407951388889,72.38984989016372L89.01829722222223,72.87435040962717L89.06303645833333,73.41489426785331L89.43373298611111,75.84207570833097L89.47208090277779,74.57832705717894L89.82999479166668,76.30871644109064L90.92291041666667,76.60228380324443L90.96764965277778,77.29668910887658L91.14021527777777,75.8354131585562L91.49812916666666,74.72715117344309L91.70265138888888,72.21758809336994L92.11169583333333,72.00444721236069L92.13086979166667,73.24699775711278L92.25869618055556,72.799641587115L92.46960972222223,70.7560196104397L92.97452395833332,69.52876772008251L93.01926319444445,66.91885236604006L93.10235034722223,67.62960235629274L93.4858295138889,67.05366257952772L93.67756909722222,66.74884168109554L93.82456944444445,67.61645872180748L93.93961319444443,67.58147722843604L94.38700555555556,68.79268575192809L94.8663545138889,68.84314718845435L95.27539895833333,70.13631222259153L95.69083472222222,68.09089061391536L96.24048819444444,71.04754841377343L96.4066625,70.30047905642897L96.94353333333333,69.77392129340404L97.63379583333334,67.36857993176359L97.67853506944444,66.08598367981284L98.40075416666667,66.88646805397951L98.419928125,68.01380787150751L98.55414583333334,68.78619500223166L98.93123368055555,70.67647259720216L98.995146875,70.83471316249917L99.02071215277778,72.22794700513741L99.20606041666666,73.64296746804766L99.41697395833333,73.43162147956417L99.74932256944443,73.34906698712314L99.857975,76.11960331452705L99.94745347222222,76.47438381231899L100.04971458333333,77.59786597890076L100.15836701388889,74.9183464484363L100.41401979166668,75.4912231093576L100.70802048611111,74.85937941670436L100.71441180555554,75.59389814034552L100.85502083333334,74.35781880358383L101.07871701388889,73.42623091352853L101.14263020833334,73.30248340871582L101.24489131944445,72.34255986567182L101.30241319444444,73.75219599049483L101.39189166666667,76.21903925564254L101.63476180555556,76.67575359098578L101.6539357638889,78.70168645268078L101.871240625,80.05325060955575L101.89680590277777,83.49518487990976L102.04380625,84.77741064515847L102.08215416666667,85.97655571591972L102.09493680555556,85.82177315809442L102.35058958333333,86.56121482764502L102.3889375,85.50965363228772L102.47202465277778,87.74100788507872L102.50398125,85.70184107467747L102.91302569444444,83.98578979172517L103.03446076388889,84.5146866662677L103.0919826388889,81.71069994937031L103.3795920138889,79.36904626415034L103.5265923611111,80.21166745559982L103.53937499999999,79.67760905747586L103.54576631944445,81.3530259048938L103.92285416666667,79.37588844163241L104.93907395833334,79.10245113462689L105.27781388888889,79.77715160547893L105.40564027777778,82.66759427460197L105.60377118055555,81.50335217282341L105.66129305555556,84.24595350592821L105.76994548611111,84.41378500232635L105.87859791666666,84.12866652489554L106.07672881944444,81.26303854517418L106.40268611111111,83.06064038094475L106.54968645833333,83.01436589244624L106.63916493055555,81.74364990896184L107.11212256944444,82.39167917459731L107.8407329861111,81.85501831784109L108.45429965277776,83.64825136082165L108.48625625,81.12278226196628L108.71634375000001,79.0353841313907L108.91447465277778,80.44502470463499L109.53443263888889,79.08517443010795L109.70060694444444,80.42293312710592L109.72617222222223,79.43023528877636L109.82843333333334,79.36028525271104L110.09686875,81.41613815499953L110.50591319444445,80.36208545818319L110.52508715277779,79.34134340054715L110.62734826388889,80.2630428209573L111.24091493055556,79.60280283909239L111.57965486111111,79.76177325212056L112.18683020833333,79.66649134686104L112.94100590277777,80.55142205398253L113.11996284722223,80.72328973384433L113.49705069444444,82.25571522913093L113.79744270833334,81.7534395651932L114.25761770833333,81.36891485829175L114.37905277777777,78.17805541788287L114.6538795138889,77.88278139053742L114.78170590277777,80.9943642581386L115.15240243055555,80.20472369768825L115.2610548611111,81.81264569109743L115.43362048611112,82.08245815015621L115.56783819444445,82.81589968150608L115.64453402777778,85.30229185703499L115.74040381944445,84.78067660507804L115.76596909722223,85.36122068119666L115.87462152777778,86.73413824786039L116.10470902777777,85.62706163128716L116.36036180555556,87.05308637239087L116.57127534722223,88.4664214451506L117.27432048611111,90.3876510299989L117.61306041666666,89.93442158441567L117.63862569444444,88.56391557125797L117.76645208333333,89.02021830476227L118.07962673611111,91.11321615118614L118.264975,90.34661136571565L118.53341041666667,91.16577367357756L118.85936770833334,89.25536392439665L119.00636805555555,89.67134166577507L119.38345590277778,90.25786882937903L119.40262986111111,87.68014024374129L119.818065625,87.73376340108612L120.00341388888889,87.05087511102911L120.22071874999999,86.8940205957156L120.44441493055557,85.29658512357007L120.59141527777777,83.97662074070156L120.69367638888889,85.62930680591974L121.16024270833334,84.4756981395594L121.28167777777777,82.63476671985283L121.42228680555556,82.73408280292963L121.946375,86.05948561949282L122.84755104166666,85.2721725666952L123.26937812499999,87.49833759471203L123.31411736111112,86.62966318715884L123.37163923611111,85.85812267180457L123.48029166666667,84.03241725278316L123.55698749999999,85.50779972902316L123.59533541666667,84.73092216214229L123.97242326388889,84.34983484825328L124.29198923611112,85.12496226342743L124.59238124999999,86.35014344175445L124.82246875,87.16581805138331L124.97586041666666,85.83384612964772L124.995034375,86.50437228862461L125.47438333333334,84.4302671730186L125.51273125,84.40123707899198L125.70447083333333,87.59841746299618L125.76199270833334,86.91330809428615L125.78755798611111,89.23114733596172L125.82590590277778,89.54985096552464L126.41390729166666,90.96394585800667L126.42029861111111,91.28219980000831L126.47142916666667,89.82026159878414L126.49699444444444,89.50095750200904L126.60564687499999,88.58827736643647L127.01469131944445,87.63488174543477L127.1361263888889,86.6306871751928L127.35343125000001,88.01911714727022L127.99895451388889,88.38933001033169L128.4016076388889,87.95039973126558L128.69560833333333,88.51521558542596L128.9768263888889,89.80167739950194L129.09826145833335,87.85432158468419L129.5264798611111,88.31985626067059L129.89717638888888,89.74201997757226L130.0441767361111,92.35594389641992L130.5618736111111,93.39911489821975L130.8494829861111,94.37318346291976L130.862265625,95.47043779798132L131.06678784722223,95.14525344122485L131.26491875,96.13102664094058L131.64200659722223,93.84359483487114L132.55596527777777,93.73495919200404L132.70935694444444,95.52814050249519L132.76687881944443,95.24938996144283L132.8052267361111,97.23258007147734L133.09922743055557,98.66459500854104L133.11840138888888,98.02067987263858L133.23983645833334,98.93851337246765L134.083490625,98.89790941444923L134.17296909722222,99.20691478866287L134.82488368055556,98.28214389185604L134.95910138888888,98.78229713414765L135.4192763888889,100.32865386224519L135.809146875,100.67234997904144L136.269321875,102.54230303624357L136.40993090277777,102.10859284078488L136.51858333333334,100.91114888746093L136.81258402777777,100.88826731392773L137.02988888888888,102.86883492684942L137.44532465277777,101.0643281842387L137.79045590277778,101.00427438088337L137.95663020833334,102.56005779020309L137.98858680555557,103.74153866574972L138.44237048611112,103.47591898593716L138.6724579861111,102.1730692749022L138.9856326388889,101.27180217811424L139.38189444444444,98.99216004969752L139.3882857638889,97.81743962602005L139.605590625,97.73987994088729L139.69506909722222,97.79776808782785L139.9635045138889,96.83550755713769L141.0308548611111,98.37930167617897L141.2289857638889,97.8480268538822L141.44629062500002,99.32692435975811L141.83616111111112,99.88400622149544L141.90007430555556,100.96571010851775L142.136553125,101.37164649122667L142.18768368055555,103.66624391623999L142.34746666666666,102.0770439461433L142.46251041666667,102.12131956996814L142.47529305555554,100.59975805476569L142.62229340277779,100.82572413722237L142.62868472222223,100.52582177365989L142.63507604166668,98.02917835388908L142.65425,98.34115996199729L142.77568506944445,97.31471477929318L142.99938125,96.38943717722601L143.19751215277776,96.08071093453786L143.3317298611111,98.6308239063848L143.44677361111113,99.9453705262701L143.51068680555557,100.0356495468683L144.07951423611112,101.3079069697399L144.16899270833332,102.76125863044773L144.35434097222222,103.0611979321476L144.39908020833334,104.02353290264692L144.4054715277778,103.5874661299803L144.5908197916667,100.49071326887784L144.65473298611113,98.54755005572206L144.78255937499998,99.0549931968643L145.22356041666666,99.27166936026718L145.53673506944446,99.65839909109583L145.7476486111111,98.16140683290855L145.99051875,98.07631083617257L146.69995520833334,99.28004729144061L146.85973819444445,99.47123608736942L146.87891215277776,100.08779761834774L146.93643402777775,100.76707371657302L147.11539097222223,98.99106946855862L147.33908715277778,99.52535067035635L147.4157829861111,99.21377724003636L147.82482743055556,99.32438873505924L147.93347986111112,100.7242473747429L148.36808958333333,100.13974112062955L148.50869861111113,102.80438636225432L148.68765555555555,102.88196908248517L149.03278680555553,103.87862723672662L149.88283229166666,101.13936796891689L149.88922361111113,101.66032956641438L150.49639895833334,102.77572011356988L150.78400833333333,102.38401285093137L151.5573579861111,102.72630418741946L151.60209722222223,103.28523449778548L152.40101215277778,102.00959884245383L152.7077954861111,102.21455805432835L153.12323125,103.7441044505052L153.24466631944443,105.49007163924739L153.27662291666667,104.69459704651231L153.4236232638889,104.40996103056438L153.56423229166668,103.99069878075592L153.69845,102.41958115753755L154.1330597222222,104.46139366429844L154.47179965277778,104.24996923547675L154.84249618055554,106.10218763026788L155.1237142361111,106.2855199544907L155.14927951388887,106.24455761861041L155.3090625,106.62508724167111L156.49145659722222,106.03660705638042L156.58732638888887,106.49245245829209L156.6065003472222,104.91571849744005L156.747109375,104.45478007585659L156.78545729166666,105.39529863066876L157.09224062500002,106.18980372432233L157.18811041666666,105.76609738086023L157.48211111111112,106.60192054281133L157.57158958333332,105.67488613986298L157.64189409722223,106.22750945754372L157.99341666666666,106.88336887553804L158.06372118055558,107.14531791488075L158.10206909722223,107.63896631740488L158.47915694444444,105.65551306297758L158.65172256944444,106.36825102528884L158.79872291666666,105.98543729864855L159.2461152777778,106.03918069297376L159.38672430555556,104.61501106095953L159.59763784722222,105.94696781440858L159.70629027777778,104.4436339708172L159.75102951388888,102.63538916922434L160.00668229166666,101.35622623777206L160.08976944444444,104.1903619708902L160.12172604166665,104.20412504849327L160.16007395833333,107.3179557912235L160.17924791666664,109.02612107327812L160.66498819444445,110.18825944156804L160.6713795138889,110.36595797278362L160.6841621527778,112.2597772001585L160.95259756944446,112.06930824440704L160.97177152777778,110.48240706347094L161.16990243055554,111.40871750435538L161.34246805555557,111.53237271203625L161.36164201388888,109.73936125656351L161.3935986111111,112.25385139305553L161.7515125,112.43635562384141L161.84738229166666,111.87871598486673L161.90490416666665,111.94727857398487L161.91768680555558,113.78650558310993L162.23086145833335,114.3478734332239L162.59516666666667,115.6333813682835L162.88277604166666,115.88862481501718L163.1448201388889,116.71644168118436L163.22790729166667,115.33511746325703L163.23429861111111,114.83953289881045L163.37490763888889,115.01965000960243L163.4068642361111,115.16210888076853L163.47716875,114.30323922429571L164.18660520833333,112.7174423413122L164.32082291666669,113.19261335731005L164.7554326388889,114.77629290020894L164.76182395833334,114.24108325279398L164.78099791666665,112.89426574812776L164.7873892361111,114.43700586084583L165.09417256944445,114.4955464349649L165.24756423611112,115.42266120688856L165.45847777777777,116.85134710437194L165.6182607638889,118.4216774848319L166.0912184027778,117.37586503688331L166.34687118055555,117.29529383516319L166.39800173611113,117.69330072573669L166.60252395833334,117.77140764873758L166.68561111111111,117.93192632568523L167.09465555555556,117.83784658827668L167.51009131944443,120.07284230442036L167.65709166666664,118.14485573832312L168.1939625,118.53622643769057L168.21313645833334,117.88404591583266L168.24509305555557,119.6968711261041L168.67331145833333,119.03855391278287L168.78835520833331,120.14400532502287L169.26770416666668,120.89491289475413L169.516965625,119.18460205318252L169.52335694444443,118.28637845331842L170.52679409722225,117.99585831754953L170.79522951388887,118.82789264756379L170.80162083333332,120.6846273581153L171.21705659722224,120.34657267347654L171.2554045138889,119.10545700350148L171.3832309027778,117.75866101925789L171.42157881944445,116.24338983794554L171.55579652777777,114.37964479270053L171.59414444444445,112.97659820848628L171.9776236111111,110.99475696227837L172.35471145833333,111.74561738242086L172.55923368055556,108.26502336773488L172.60397291666666,110.78744545867464L173.97171527777778,111.4470638749301L174.1314982638889,111.49963426612432L174.21458541666667,111.62084052106994L174.38715104166664,110.14105007839977L174.43189027777777,111.19553797091258L174.5341513888889,111.52102768705784L174.58528194444446,110.50988668470889L174.67476041666666,110.63585259331417L174.8537173611111,110.19621431374912L175.29471840277776,111.16482787898879L175.3138923611111,112.36924473004936L175.58232777777778,113.58982755883491L175.80602395833333,114.35127670859613L176.04250277777777,114.63632933276494L176.62411284722225,113.96319853920681L176.72637395833334,113.74407765070009L177.41024513888888,115.36168307653512L177.454984375,116.12611138776899L177.5316802083333,117.00444423872831L177.85763749999998,118.50010480379547L177.93433333333334,117.28128854375835L178.50955208333335,116.85814132794985L178.5287260416667,114.73885565474563L179.46825,113.58614174233315L179.4938152777778,115.68635102156853L179.50020659722222,117.60391663195104L179.60885902777778,118.11851184805755L179.70472881944443,118.4584422863135L179.76864201388886,119.38152959736314L179.83894652777778,119.01131176694832L179.87090312499998,117.74426925897524L179.90285972222222,116.7123844285481L180.12016458333332,117.6313371793521L180.1840777777778,117.4076178010232L180.35025208333334,117.77638346312159L180.63786145833333,115.99484247899305L180.78486180555555,115.79637696305983L181.11081909722222,117.45446331662406L181.2642107638889,117.9510465117367L181.38564583333334,118.91284175325906L181.47512430555554,117.15771461678453L181.68603784722222,117.76149799469843L182.40825694444445,117.26433136702687L182.72143159722225,118.35163052402582L183.2391284722222,121.6323522984116L183.30943298611112,121.0790431185147L183.437259375,122.67091469194153L183.82073854166666,120.48245367658258L183.90382569444444,120.32117727813116L184.14030451388888,121.3674452623921L184.26813090277778,124.04348917384202L184.33843541666667,124.70201041623451L184.95200208333333,126.36832600380012L185.853178125,124.4399551670981L186.10243958333334,124.35380614141212L186.28778784722223,123.94618400890838L186.53704930555557,125.2713048102623L186.8438326388889,124.42945441242415L187.15061597222223,124.96518825489458L187.1633986111111,124.41785449284598L187.21452916666667,123.83759543526557L187.40626874999998,122.06129771982316L187.55326909722223,121.61559073094331L187.64274756944445,121.7431918609736L188.00705277777777,120.52714964140273L188.62061944444443,122.79518891538669L188.90822881944445,123.82648101464471L188.93379409722223,124.38003481581437L189.3172732638889,123.99936270599909L189.61127395833333,120.64602516067254L189.80301354166667,121.09668877377007L189.94362256944444,120.61796566103557L189.994753125,120.48906359512983L190.7744940972222,119.379285433223L190.96623368055555,121.86299941423569L191.10684270833332,121.74802043233367L191.31775625,120.42566288612693L191.5031045138889,120.71122121171419L191.7907138888889,122.01145789498975L192.03997534722222,121.58487720277306L192.58962881944444,123.01357043591352L193.05619513888888,123.21519285478968L193.215978125,125.85542476809475L193.29906527777777,124.5108116352386L193.3565871527778,124.73815256782343L193.86150138888888,124.01560399097494L194.23858923611112,123.9884397861615L194.96719965277777,125.50117813633085L195.06306944444444,125.3848977695011L195.56798368055556,125.5997309944527L195.96424548611114,126.05306296644676L196.12402847222222,124.52676220886093L196.69285590277778,125.29441077215523L196.92933472222222,124.38524059832957L197.1530309027778,125.26475871839142L197.36394444444443,124.8370040270064L197.6259885416667,125.71369475559703L198.31625104166667,126.27898496439192L198.41851215277777,127.14107915090645L198.5527298611111,128.40597710279124L198.6102517361111,127.9284152824824L198.71251284722223,127.6158718340393L199.11516597222223,128.00791190747702L199.12155729166668,128.47372961723033L199.21103576388887,126.81178727072707L199.91408090277778,127.04040451072552L199.99716805555556,124.5678553802721L200.06747256944445,125.07252876694753L200.7066045138889,124.47987141263096L201.13482291666668,123.26824028023591L201.40325833333335,122.93558894003232L202.41308680555554,123.55817302167925L202.9499576388889,124.17800542766335L202.96274027777778,125.98061095109794L203.21839305555554,126.09605661834618L203.224784375,126.2556200692755L203.23117569444446,124.93113580758569L203.33343680555558,124.40837933630037L203.41652395833336,121.88497240513234L203.42930659722222,122.40316392441085L204.06204722222222,122.7734259741696L205.02074513888888,122.61409923022596L205.42978958333336,123.85712491184941L205.4681375,123.2978826593145L205.50648541666666,122.03286978810402L205.53205069444445,120.54359689967643L205.53844201388887,120.01831027547321L206.01779097222223,119.799133307924L206.27344374999998,119.21425355390579L206.62496631944444,120.98016690155782L207.32162013888887,121.17814769232731L207.3919246527778,120.24570815653993L207.4430552083333,118.17179029502381L207.7498385416667,121.26284151274797L207.90323020833333,122.9448866214246L208.1588829861111,123.09570806065571L208.17805694444445,124.10702640045693L208.3761878472222,125.38391311740148L208.44010104166668,123.28179619897159L208.48484027777778,124.47162458158957L208.59988402777776,125.19337820933245L208.9641892361111,124.87427420070193L209.092015625,123.73473793517944L209.11118958333333,124.39134815570029L209.24540729166668,127.49818552416697L209.7950607638889,127.85759126294857L210.37667083333335,126.94783697764332L210.38945347222221,128.36799473788184L210.59397569444445,127.3603647763758L210.70901944444444,128.99681707087313L212.5177628472222,128.43059265088405L212.68393715277776,129.6384067819822L212.96515520833336,128.23860777190623L213.31667777777776,128.43984557395203L213.71293958333334,129.19270663671415L213.79602673611112,129.77479380230068L214.384028125,128.061222443465L214.56937638888888,128.44772662809945L214.81863784722222,130.02008857057461L215.2340736111111,130.0356105727197L216.60820729166667,128.73125436867343L217.1131215277778,128.96644591477676L217.27929583333332,130.12366178468798L217.41990486111112,129.6478857066808L217.54133993055558,129.13912705765L217.66916631944443,129.1799894795287L217.70112291666666,129.54035307128632L217.80338402777778,128.32296728739976L217.8800798611111,128.52888400227673L217.9823409722222,127.71347395160393L218.15490659722224,125.7318482089428L218.58951631944447,126.03707359741972L218.90269097222222,126.1840506724536L218.985778125,125.72995901426657L219.03690868055557,126.69000821413323L219.64408402777778,126.20226890321197L220.10425902777777,126.55913764086448L220.31517256944446,125.01078933692233L220.35991180555556,127.35678990685227L220.41743368055558,125.75797028147264L220.73699965277777,126.24528875743248L220.7561736111111,125.87839929806395L220.89039131944446,127.17774415447683L220.9670871527778,127.59494655299494L221.08852222222222,127.24725641598513L221.20995729166665,126.59468450072205L222.07917673611112,127.030695184543L222.5968736111111,128.3836862586L222.60326493055555,129.90450089708315L222.82056979166668,127.21107932729748L222.94200486111112,128.30978097553088L223.23600555555555,127.81683953516614L223.69618055555557,128.16821691988065L223.72813715277778,129.63737881324954L223.89431145833333,130.3718926705294L224.18831215277777,131.52767747894237L224.28418194444444,131.6602096283435L224.57179131944443,133.21773816392414L224.8082701388889,133.50618733853952L225.083096875,135.08430569030247L225.21092326388887,134.19295298395514L225.24927118055555,135.5253117213416L225.33235833333333,135.38500574370045L225.51131527777775,136.48780690740972L225.78614201388888,138.24918854122106L226.0417947916667,138.62506690632958L226.47001319444445,138.8353194994823L226.62979618055556,139.03900772640208L226.67453541666669,138.55088443448696L226.70010069444444,139.55394892928123L227.33284131944444,137.85306926662616L227.35201527777778,137.84081801105737L227.60766805555554,138.54614066749264L228.20845208333333,138.76997186352096L228.29793055555555,140.13065898013835L228.4065829861111,139.42273198939523L228.41297430555554,139.68490608348978L228.6814097222222,141.7680220737622L229.3141503472222,142.8754451472056L229.4867159722222,142.40535934394424L230.4198486111111,140.40484866349175L230.75858854166668,138.0588186541933L231.44885104166667,137.46228885592558L231.51915555555556,136.51281207030064L232.30528784722225,136.0830869423503L232.68237569444443,135.6607777335569L232.9188545138889,136.92064444530263L233.05307222222223,135.77295140713213L233.28955104166667,134.24657183599842L233.51963854166667,135.49333394616477L233.5260298611111,135.46137174155965L233.68581284722222,136.59899738803955L234.08207465277778,136.34221997790462L234.53585833333332,136.5151141178305L234.70203263888888,136.79207562269704L234.81068506944445,137.60197923312802L234.95768541666666,137.06343939092164L235.2516861111111,136.77384961024148L235.667121875,136.48250661961941L235.71186111111112,136.43738556814537L235.76299166666666,135.59707290309277L236.069775,134.44977800841082L236.12729687499998,135.2533491010194L236.50438472222223,136.09682533954L236.587471875,135.6877732931132L237.51421319444444,136.38824693153714L237.59090902777777,136.76914076291513L237.80182256944445,137.313271398008L237.81460520833332,136.20300268389832L238.07025798611113,137.52020169042117L238.48569375000002,136.4845224878988L238.9586513888889,135.7501481157634L239.2590434027778,133.51226401042618L239.4891309027778,131.75423439948736L239.67447916666669,129.76490383557916L239.85982743055555,131.62180297473762L239.94291458333333,133.67665912435166L239.96208854166667,134.7314200061775L240.383915625,136.0043177786195L240.40308958333333,137.6026758507649L240.67791631944445,139.2499216455633L240.92717777777779,141.14823683648405L240.99109097222222,140.93468500252715L241.3490048611111,141.62242623857242L242.19265902777778,142.26201172600275L242.2373982638889,141.6405265666473L242.24378958333335,140.48037526897417L242.28852881944442,140.00904057441468L242.70396458333332,141.29378699836352L242.88292152777777,142.6178350742915L242.95961736111113,142.49668363476624L243.0427045138889,142.23389264265836L243.08744374999998,143.37693510195544L243.605140625,144.12163086212152L243.81605416666667,143.4300006014892L243.84161944444446,145.12631686407542L244.01418506944444,143.3619634267243L244.02696770833333,143.2827764510273L244.45518611111112,144.0751980318238L244.60218645833334,141.82106243165265L245.04957881944443,142.30129740830674L245.1134920138889,142.98971187337867L245.22214444444444,143.81312500028562L245.26688368055554,143.64862728469996L245.28605763888888,142.81258475633683L245.3755361111111,142.87447150092413L245.44584062500002,143.04967573293672L246.31506006944443,141.51904456563898L246.5515388888889,142.86872550629798L246.90306145833335,143.34156919813387L246.94780069444442,142.52197870749688L247.36323645833332,142.60986702631067L247.52301944444443,143.46773143182932L247.58054131944445,142.68336561358464L247.65723715277778,140.40987724278673L247.7786722222222,136.36323150954092L247.88732465277778,135.09829024815318L247.98319444444445,135.44269961837065L248.2324559027778,137.15864714940136L248.30915173611112,137.77156184456902L248.4689347222222,136.22278794171044L248.66067430555555,135.14431476444335L248.70541354166667,134.96722510913324L249.07611006944444,135.20362960469475L249.37011076388887,135.60022833289153L249.49154583333336,136.98944347899118L249.53628506944443,135.91907921962837L249.8302857638889,135.22879814824387L250.162634375,135.0941455362009L250.18180833333335,136.51708688715112L250.4055045138889,134.9544429381318L250.8401142361111,134.81760974960025L250.99989722222222,134.29463657202626L251.21720208333332,134.44767275367747L251.2363760416667,133.84123169759607L251.56872465277777,135.59529844896906L251.57511597222222,135.55484672922194L251.70933368055557,135.98305642710133L252.06085625,135.94711251357836L252.233421875,138.37609567306106L252.61690104166667,137.3842613078948L252.6232923611111,138.01075200708L252.78946666666667,137.65251166465887L252.8661625,140.2532534165425L252.96203229166665,139.8752317569105L253.08985868055555,138.0973081267835L253.14738055555554,136.06248364531433L253.20490243055556,136.82384726745315L253.39664201388888,136.0121214856891L253.70981666666665,137.15399928907323L254.0613392361111,136.2129017029065L254.26586145833335,136.14185462147265L254.40647048611112,135.9028278903688L254.87303680555553,134.5737516770297L255.37155972222223,134.1592805640063L255.84451736111112,136.83471023567435L256.1576920138889,137.91931949413063L256.3877795138889,136.3138048352288L256.78404131944444,135.27742311074311L257.27617291666667,137.61987835199773L257.295346875,137.1593299451398L257.7810871527778,137.37806258264695L257.9153048611111,138.89371814930144L257.9664354166667,139.25745874690494L258.04952256944443,140.32623907968036L258.0623052083333,141.89390296322063L258.100653125,142.96772588200406L258.5096975694444,141.52561289442195L258.72700243055556,143.75720371236662L258.73978506944445,142.79326015377484L258.7461763888889,144.28857386156497L259.2958298611111,144.5172645453801L259.3150038194444,144.49016634384185L259.48756944444443,143.75768781834668L260.5804850694444,143.94231229887203L260.62522430555555,141.92071480029674L260.861703125,141.84656993473985L261.0470513888889,141.0158809718479L261.0790079861111,141.77633953245183L261.3474434027778,144.13764641903438L261.7437052083333,143.420655133816L261.85235763888886,144.4914769315152L261.8587489583333,144.73476376060873L262.2805760416667,145.53080613979475L262.3317065972222,144.1467548910245L262.40840243055555,141.08982143136433L262.64488125,141.53124823463574L262.6512725694445,141.43165430064062L262.6704465277778,142.27685926156198L263.0922736111111,142.96931492417195L263.42462222222224,145.81425297162323L263.5204920138889,146.01490630534593L263.6163618055556,146.06362011231647L263.7186229166667,146.30657131101495L263.8017100694445,146.01500799405832L264.02540625,144.9576260600424L264.14684131944443,146.00725094444553L264.19158055555556,143.05750221380572L265.68075798611113,140.95277495132723L266.06423715277776,139.05564245512113L266.2559767361111,140.3047926616095L266.37741180555554,139.57539428352686L266.9462392361111,140.11014838749776L267.19550069444443,139.11810066054792L267.2210659722222,138.04973300899564L267.27858784722224,140.96382300068112L267.31693576388886,141.962806276566L267.47671875000003,142.22758246517284L267.8410239583333,143.07856184515094L268.1158506944444,141.3479084386068L268.7741565972222,140.98037160404712L269.16402708333334,140.37387521217363L269.5155496527778,141.5802157926668L269.7264631944444,140.82502286311217L269.9629420138889,142.23434485033806L270.4231170138889,141.84443352235868L270.46146493055556,140.99399509585604L270.5189868055555,142.15087287429276L270.8641180555556,142.5859745545696L271.34346701388887,144.2461486013035L271.40738020833334,143.63466802340963L271.560771875,144.08308142936318L271.5991197916667,144.21458047275863L271.62468506944447,143.92080608155743" style="fill: none;" fill="none"></path></g></g></g></g><g opacity="0.2"><g><g><g><path style="fill: none;" stroke="rgb(51, 187, 238)" stroke-width="2px" d="M32.22503263888889,32.83570130666098L32.244206597222224,-32.935715516408266L32.55738125,-40.873950719833346L32.966425694444446,17.551743586858095L33.023947569444445,64.77211872736612L33.420209375,-0.13440728187561035L33.452165972222225,-1.66542649269104L33.58638368055556,18.653400341669737L33.701427430555555,8.027793169021606L33.92512361111111,46.4979330698649L33.93790625,3.1501662731170654L33.98903680555556,8.090436855951936L34.64734270833333,3.6464862028757636L34.89660416666667,-10.10387341181439L34.98608263888889,11.85135563214618L35.38234444444445,31.399866739908845L35.65717118055556,-5.26099125544232L35.701910416666664,-2.092210054397583L36.00869375,26.01879278818768L36.09178090277778,-39.52122688293454L36.24517256944445,25.832010507583618L36.51999930555555,62.61332631111145L36.57112986111111,-1.5079732735951836L36.884304513888885,44.89050825436911L36.97378298611111,43.64637931187946L37.08243541666667,56.13619883855185L37.120783333333335,57.74006009101868L37.29974027777777,-25.762497584025056L37.99639409722223,-35.08348902066547L38.16256840277778,7.571258544921875L38.43739513888889,26.65446678797403L38.76974375,56.744091113408416L39.01261388888889,28.041982253392547L39.498354166666665,1.2480676174163818L40.016051041666664,38.6274758974711L40.36757361111111,6.051352024078369L40.386747569444445,15.885121424992889L40.47622604166666,18.94858996073407L40.50179131944444,18.703243335088104L40.80857465277778,73.21234742800394L40.85331388888889,51.37473940849304L41.13453194444444,5.504649877548218L41.32627152777778,44.700607856114715L41.69057673611111,37.88287878036499L41.875925,63.82704774538675L41.978186111111114,53.216093381245926L42.080447222222226,26.275838216145843L42.43836111111111,58.24421048164368L42.76431840277778,-0.8881008625030518L42.87936215277777,-8.073533376057952L42.93688402777778,76.09067479769388L43.03914513888889,49.21793977419536L43.05831909722222,31.976155837376893L43.33953715277778,73.8463568687439L43.74219027777777,33.35373083750406L43.88279930555556,38.48059614499411L43.90197326388889,66.11161986986795L43.95310381944444,18.581214745839418L44.20875659722222,14.522644678751647L44.31740902777778,28.481003840764373L44.40049618055556,13.994346459706634L44.96932361111111,61.135385433832795L45.352802777777775,18.774960041046143L45.93441284722222,39.040403763453156L46.01110868055555,45.855342944463075L46.215630902777775,47.14335997899374L46.25397881944445,-46.82219386100769L46.38180520833333,32.078397274017334L46.41376180555556,15.261755784352601L46.70137118055556,55.22934238115947L46.778067013888894,-6.8137200673421034L47.00176319444444,-7.854397694269835L47.22545937500001,57.43746201197307L47.23185069444444,0.6309382120768134L47.52585138888889,48.08847784996033L47.63450381944445,61.157024701436356L47.64728645833333,26.91533366839093L47.67924305555555,72.74406711260478L47.83902604166666,78.13630064328511L47.84541736111111,76.89034303029378L47.92211319444445,85.3134806950887L47.95406979166667,43.41364582379657L48.13941805555555,47.86012848218283L48.235287847222224,88.86133591334026L48.27363576388888,78.31762035687765L49.11728993055556,44.60427443186441L49.4688125,46.25624378522235L49.78198715277777,55.359060764312744L50.46585833333333,72.64248212178548L50.91964201388889,58.75126798947652L51.37342569444444,101.73522313435872L51.39259965277778,12.491718530654907L51.76329618055555,58.221516211827606L52.15955798611111,27.37611174583435L52.60055902777778,37.25161234537762L52.6900375,30.91437816619873L52.70282013888889,59.29609457651773L52.70921145833333,35.25922894477844L53.07990798611111,74.98376647631326L54.198388888888886,42.28678623835245L54.96534722222223,52.0849903424581L55.08039097222222,67.23008632659912L55.09317361111111,97.63590653737386L55.412739583333334,12.992446025212587L55.77065347222222,12.5490403175354L55.86652326388889,33.06053400039673L56.198871874999995,98.54965567588806L56.33308958333333,49.07907803853354L56.37782881944444,50.12287378311157L57.061699999999995,55.5567447344462L57.24065694444444,56.2356972694397L57.41961388888889,39.00108734766641L57.751962500000005,86.16925160090128L58.14822430555556,68.2332996527354L58.774573611111116,74.19612526893616L58.97270451388889,72.03187028566995L59.00466111111111,20.6289037068685L59.46483611111111,17.1204117933909L59.54792326388889,20.182426770528167L59.56070590277778,53.40472777684529L60.07840277777778,0.6828208764394219L60.666404166666666,87.65654683113098L60.775056597222225,49.06658212343851L60.909274305555556,59.90651885668436L61.53562361111111,35.110004742940276L61.76571111111111,67.64803131421407L61.79127638888889,46.93193753560385L61.84240694444445,31.025622288386046L62.315364583333334,59.23188010851541L62.55823472222222,71.96165402730307L62.64771319444444,75.59676965077719L62.89058333333334,64.68661665916443L62.96727916666667,69.42573348681131L63.23571458333333,89.28364157676697L63.67032430555556,53.828135331471756L63.72784618055556,44.667410453160585L63.74702013888889,49.33767080307007L64.23276041666666,58.23844313621521L64.24554305555556,71.06539448102315L64.59067430555555,57.91486223538716L64.76963125,17.816150585810362L65.44071979166667,85.53350726763406L66.01593854166667,46.068734725316375L66.11819965277778,49.37218109766643L66.207678125,92.36108303070068L66.59754861111111,74.03426448504129L67.21750659722223,44.0073541800181L67.42202881944445,42.22899556159973L68.15703055555556,39.53381657600403L68.25290034722222,29.448229869206756L68.53411840277778,28.766252994537354L69.07738055555555,72.58122165997823L69.18603298611112,70.40411909421285L69.20520694444444,26.82645559310913L69.43529444444445,51.449199120203644L69.48003368055555,69.63460048039754L69.71012118055556,58.28936457633972L69.84433888888888,48.8084582487742L70.24060069444445,47.73732622464499L70.36842708333333,73.89641086260477L71.07786354166667,18.380459547042847L71.14177673611111,30.430179039637267L71.58277777777778,89.72873528798421L71.66586493055556,68.95058393478394L71.70421284722222,34.787596066792815L71.7873,79.12619749704997L72.15160520833334,29.2728885014852L72.29860555555555,75.21087328592937L72.33056215277777,64.09886320432027L72.70765,42.80026753743488L72.86104166666668,39.09563899040222L73.47460833333334,102.32292970021565L73.628,117.72915045420328L73.97313125,54.159968694051116L74.15847951388889,19.768514235814393L74.5036107638889,31.71439806620279L74.75287222222222,74.26732619603474L74.77204618055555,82.35579371452332L74.8487420138889,52.67874558766684L75.04687291666667,14.102660020192474L75.71157013888889,101.00962777932484L75.76270069444445,80.57401220003763L75.85857048611112,58.99966239929199L76.47852847222222,67.26000150044759L76.64470277777778,31.94408377011615L76.78531180555555,24.011264244715363L77.37331319444445,40.971503257751465L77.42444375,45.03028432528177L77.68648784722222,52.682567040125534L78.27448923611111,109.25293445587158L78.68353368055554,28.048335711161286L78.862490625,7.1868157386779785L78.86888194444444,58.97499879201254L78.9903170138889,35.93604803085327L79.1373173611111,56.49726748466492L79.25875243055555,31.317811012268066L79.57192708333334,57.679760853449494L79.63584027777779,89.43347533543904L79.65501423611111,81.66354815165201L79.75088402777777,102.72565921147664L79.96179756944444,73.32180976867676L81.08666979166667,78.70152393976846L81.12501770833335,61.743981043497726L81.55323611111112,64.72389340400696L81.73219305555554,97.74410287539163L81.79610625,71.71154816945393L82.01980243055554,58.9342757066091L82.44802083333333,69.69154715538025L82.65254305555555,82.67030159632364L83.02963090277778,40.65969149271649L83.25332708333333,42.92410135269165L83.5089798611111,87.41785844167075L84.23759027777777,88.72195839881897L84.46128645833333,98.83973439534505L84.499634375,62.09578911463419L84.94063541666667,63.22588404019673L85.22185347222224,77.48374660809836L85.4072017361111,87.22622315088907L85.43915833333332,77.43870973587036L85.49668020833333,108.5068017244339L86.07189895833334,113.23393841584523L86.09107291666668,72.3252546787262L86.2700298611111,84.58255171775818L86.33394305555555,65.91269334157309L86.70463958333333,57.06917246182759L86.92833576388888,63.041891654332474L87.145640625,82.60531346003214L87.52911979166667,74.45218602816263L88.32164340277778,84.95764017105103L88.34081736111112,77.11613694826761L88.69873125000001,59.82751091321309L88.86490555555557,32.976602713267L88.88407951388889,98.61912171045938L89.01829722222223,80.46485463778177L89.06303645833333,81.8834106127421L89.43373298611111,113.86790096759796L89.47208090277779,54.77960666020711L89.82999479166668,103.41813921928406L90.92291041666667,81.20150407155354L90.96764965277778,88.17570169766744L91.14021527777777,52.94209758440654L91.49812916666666,57.36438552538553L91.70265138888888,32.90111144383749L92.11169583333333,68.6652410030365L92.13086979166667,92.71361788113911L92.25869618055556,65.79106330871582L92.46960972222223,38.739282687505096L92.97452395833332,50.301825602849334L93.01926319444445,26.030186812082945L93.10235034722223,78.76468340555826L93.4858295138889,58.0306077003479L93.67756909722222,61.97331508000693L93.82456944444445,81.20912353197733L93.93961319444443,67.03343391418457L94.38700555555556,87.76828328768411L94.8663545138889,69.6337095896403L95.27539895833333,90.39589524269104L95.69083472222222,36.04595581690472L96.24048819444444,117.36851553122202L96.4066625,58.59639366467793L96.94353333333333,61.52451713879904L97.63379583333334,29.68490203221637L97.67853506944444,45.99197745323181L98.40075416666667,79.42738890647888L98.419928125,85.67546367645264L98.55414583333334,80.88692585627237L98.93123368055555,100.29081960519154L98.995146875,73.31381519635518L99.02071215277778,94.05527591705322L99.20606041666666,95.81162015597026L99.41697395833333,70.12053449948628L99.74932256944443,72.055713335673L99.857975,119.5246704419454L99.94745347222222,82.03261137008667L100.04971458333333,95.19908587137859L100.15836701388889,32.93920874595642L100.41401979166668,84.46629047393799L100.70802048611111,64.96049523353577L100.71441180555554,87.10135777791342L100.85502083333334,54.992576440175384L101.07871701388889,58.83135437965393L101.14263020833334,71.36377255121866L101.24489131944445,57.30375806490579L101.30241319444444,95.83649476369222L101.39189166666667,114.86624956130981L101.63476180555556,83.83094469706217L101.6539357638889,110.44130067030589L101.871240625,101.22775534788768L101.89680590277777,137.4188208580017L102.04380625,104.86561397711436L102.08215416666667,104.76316154003143L102.09493680555556,83.3968464533488L102.35058958333333,98.14580082893372L102.3889375,69.0351951122284L102.47202465277778,122.69889076550801L102.50398125,53.754894733428955L102.91302569444444,57.1009866396586L103.03446076388889,92.80073761940002L103.0919826388889,37.781575123469025L103.3795920138889,42.683138847351074L103.5265923611111,93.41273268063863L103.53937499999999,71.31069421768188L103.54576631944445,107.60122299194336L103.92285416666667,48.40073506037393L104.93907395833334,74.81860001881918L105.27781388888889,90.34745891888936L105.40564027777778,127.9511958360672L105.60377118055555,63.263559341430664L105.66129305555556,127.21337417761484L105.76994548611111,87.04314510027568L105.87859791666666,79.6618103981018L106.07672881944444,36.36820038159689L106.40268611111111,111.22306903203328L106.54968645833333,82.28939890861511L106.63916493055555,61.83576623598735L107.11212256944444,92.54413763682048L107.8407329861111,73.44733158747356L108.45429965277776,111.74223562081654L108.48625625,41.55709981918335L108.71634375000001,46.33281350135803L108.91447465277778,102.52939363320668L109.53443263888889,57.780853509902954L109.70060694444444,101.38115266958873L109.72617222222223,63.87796918551126L109.82843333333334,78.26440135637918L110.09686875,113.62450023492177L110.50591319444445,63.84859323501587L110.52508715277779,63.34971785545349L110.62734826388889,94.70300038655598L111.24091493055556,69.25904313723245L111.57965486111111,82.25230971972147L112.18683020833333,78.17374149958293L112.94100590277777,94.415336449941L113.11996284722223,83.41588338216145L113.49705069444444,106.26371463139851L113.79744270833334,73.88445417086282L114.25761770833333,75.34469445546468L114.37905277777777,28.18792422612509L114.6538795138889,73.25682163238525L114.78170590277777,129.7424958149592L115.15240243055555,67.83368825912476L115.2610548611111,107.00342357158661L115.43362048611112,86.30952000617981L115.56783819444445,94.30648366610208L115.64453402777778,124.2557692527771L115.74040381944445,76.60870432853699L115.76596909722223,94.45641120274861L115.87462152777778,108.24318011601765L116.10470902777777,68.28286131223044L116.36036180555556,109.39414064089458L116.57127534722223,110.60867091019948L117.27432048611111,120.4869145154953L117.61306041666666,82.83382693926492L117.63862569444444,67.09265470504761L117.76645208333333,96.16896112759908L118.07962673611111,123.903515736262L118.264975,78.33646972974141L118.53341041666667,103.99931649367014L118.85936770833334,59.32561119397481L119.00636805555555,96.18832627932231L119.38345590277778,99.4467943906784L119.40262986111111,47.29572574297586L119.818065625,88.57385953267415L120.00341388888889,76.35229190190633L120.22071874999999,84.43663318951926L120.44441493055557,60.27009606361389L120.59141527777777,63.297178745269775L120.69367638888889,111.52138849099477L121.16024270833334,66.40249570210774L121.28167777777777,53.79350781440735L121.42228680555556,84.29003477096558L121.946375,138.15746307373047L122.84755104166666,72.93760140736897L123.26937812499999,122.37492303053537L123.31411736111112,73.02043080329895L123.37163923611111,73.77065459887186L123.48029166666667,55.42969902356465L123.55698749999999,108.62212518850961L123.59533541666667,72.55984028180441L123.97242326388889,78.37946693102519L124.29198923611112,97.26862510045369L124.59238124999999,105.5446485678355L124.82246875,99.94472026824951L124.97586041666666,64.96628602345784L124.995034375,97.00928211212158L125.47438333333334,51.9359536965688L125.51273125,83.94643227259317L125.70447083333333,137.6875768105189L125.76199270833334,76.17992798487344L125.78755798611111,125.54396212100983L125.82590590277778,94.5428744951884L126.41390729166666,113.11809917291005L126.42029861111111,96.2681782245636L126.47142916666667,66.91656311353047L126.49699444444444,84.49852665265401L126.60564687499999,74.28962190945944L127.01469131944445,72.69835035006204L127.1361263888889,70.89830557505289L127.35343125000001,109.77118670940399L127.99895451388889,94.18933153152466L128.4016076388889,81.07382535934448L128.69560833333333,97.3639973004659L128.9768263888889,109.95624581972758L129.09826145833335,57.345747152964265L129.5264798611111,95.61323285102844L129.89717638888888,112.0225848754247L130.0441767361111,133.30741862456003L130.5618736111111,109.74212725957234L130.8494829861111,109.6335909763972L130.862265625,112.66075571378072L131.06678784722223,90.05069851875305L131.26491875,111.57480676968892L131.64200659722223,58.00716320673625L132.55596527777777,92.0330007870992L132.70935694444444,123.62131436665852L132.76687881944443,90.88229815165202L132.8052267361111,128.30255846182504L133.09922743055557,121.09949568907419L133.11840138888888,87.93267607688904L133.23983645833334,113.31790486971536L134.083490625,98.26178073883057L134.17296909722222,104.04799898465474L134.82488368055556,83.79406650861104L134.95910138888888,106.61803126335144L135.4192763888889,124.55490926901498L135.809146875,106.05692247549693L136.269321875,131.83823426564535L136.40993090277777,95.31379977862039L136.51858333333334,82.15119361877441L136.81258402777777,100.52978932857513L137.02988888888888,133.89772752920786L137.44532465277777,72.79372255007425L137.79045590277778,100.06343146165212L137.95663020833334,126.93399786949158L137.98858680555557,122.25140571594238L138.44237048611112,99.31454400221507L138.6724579861111,81.76175713539124L138.9856326388889,87.15195099512735L139.38189444444444,63.277766704559326L139.3882857638889,79.41348632176717L139.605590625,96.52477820714314L139.69506909722222,98.70468238989511L139.9635045138889,81.76009257634482L141.0308548611111,122.56540954113007L141.2289857638889,89.5247213045756L141.44629062500002,122.49631861845651L141.83616111111112,108.6116220553716L141.90007430555556,117.91240433851877L142.136553125,107.73131648699443L142.18768368055555,139.61493690808612L142.34746666666666,77.17957774798074L142.46251041666667,102.81497100989023L142.47529305555554,76.76196098327637L142.62229340277779,104.36585942904155L142.62868472222223,95.82735141118367L142.63507604166668,58.91509811083476L142.65425,103.22887182235718L142.77568506944445,81.23374025026956L142.99938125,81.89342141151428L143.19751215277776,91.2439997990926L143.3317298611111,138.5825937986374L143.44677361111113,120.53993423779805L143.51068680555557,101.45002086957295L144.07951423611112,121.23993992805481L144.16899270833332,125.5304346481959L144.35434097222222,107.7602469921112L144.39908020833334,119.10011410713196L144.4054715277778,96.75575335820515L144.5908197916667,51.97491844495137L144.65473298611113,68.10465971628824L144.78255937499998,107.00493574142456L145.22356041666666,102.66626258691151L145.53673506944446,105.71716487407684L145.7476486111111,74.70852812131245L145.99051875,96.74314022064209L146.69995520833334,118.1385850906372L146.85973819444445,102.46652722358704L146.87891215277776,109.7472616036733L146.93643402777775,111.40906592210133L147.11539097222223,71.16700291633606L147.33908715277778,107.89575616518655L147.4157829861111,94.3324601650238L147.82482743055556,101.05730215708415L147.93347986111112,122.65536606311798L148.36808958333333,90.98247647285461L148.50869861111113,144.55049514770508L148.68765555555555,104.0974316994349L149.03278680555553,119.49293831984201L149.88283229166666,58.22430610656738L149.88922361111113,109.82206126054128L150.49639895833334,120.25017201900482L150.78400833333333,96.247265736262L151.5573579861111,108.08886845906575L151.60209722222223,112.04180936018625L152.40101215277778,82.0246402422587L152.7077954861111,105.4255857070287L153.12323125,127.70699799060822L153.24466631944443,132.84355759620667L153.27662291666667,92.2321617603302L153.4236232638889,99.95066344738007L153.56423229166668,97.42225686709087L153.69845,77.80540506045023L154.1330597222222,136.4497896035512L154.47179965277778,100.93765318393707L154.84249618055554,135.12027581532794L155.1237142361111,109.15772636731465L155.14927951388887,105.602814356486L155.3090625,112.58671800295511L156.49145659722222,96.81708415349324L156.58732638888887,113.6340304215749L156.6065003472222,80.21355311075845L156.747109375,97.233411471049L156.78545729166666,120.13008932272592L157.09224062500002,118.63705019156137L157.18811041666666,99.12803133328755L157.48211111111112,119.69648341337839L157.57158958333332,91.15134716033936L157.64189409722223,114.88527476787567L157.99341666666666,117.15849975744882L158.06372118055558,111.24918619791666L158.10206909722223,115.3727912902832L158.47915694444444,74.58141207695007L158.65172256944444,117.53447910149892L158.79872291666666,99.98802224795024L159.2461152777778,106.88116053740183L159.38672430555556,82.30302015940349L159.59763784722222,126.81429028511047L159.70629027777778,80.89140375455221L159.75102951388888,74.30622061093648L160.00668229166666,81.31600697835286L160.08976944444444,148.59182178974152L160.12172604166665,104.41974659760793L160.16007395833333,156.10130409399667L160.17924791666664,135.78737715880075L160.66498819444445,128.39509387811023L160.6713795138889,113.14990162849426L160.6841621527778,141.9296117623647L160.95259756944446,109.08529460430145L160.97177152777778,85.62095522880554L161.16990243055554,125.9209144115448L161.34246805555557,113.46963763237L161.36164201388888,81.6488484541575L161.3935986111111,151.64753019809723L161.7515125,115.29558857282004L161.84738229166666,103.14236164093018L161.90490416666665,113.02142580350241L161.91768680555558,142.60106205940247L162.23086145833335,123.14263641834259L162.59516666666667,135.7730056842168L162.88277604166666,119.8874388138453L163.1448201388889,129.6855725844701L163.22790729166667,93.69437138239542L163.23429861111111,107.07537472248077L163.37490763888889,117.84148474534352L163.4068642361111,117.39396452903748L163.47716875,100.84761460622151L164.18660520833333,87.87329117457071L164.32082291666669,120.6369592746099L164.7554326388889,139.5872724056244L164.76182395833334,105.85613210995992L164.78099791666665,91.79412484169006L164.7873892361111,138.6066009600957L165.09417256944445,115.41268209616342L165.24756423611112,129.9474593003591L165.45847777777777,139.23409283161163L165.6182607638889,143.02352011203766L166.0912184027778,100.99147001902263L166.34687118055555,116.03301167488098L166.39800173611113,123.92874201138814L166.60252395833334,118.99508277575174L166.68561111111111,120.44671893119812L167.09465555555556,116.36393070220947L167.51009131944443,155.08777519067127L167.65709166666664,87.93973286946614L168.1939625,124.66770072778067L168.21313645833334,107.66655107339223L168.24509305555557,148.09779942035675L168.67331145833333,108.72491757074992L168.78835520833331,137.46274411678314L169.26770416666668,132.6591314872106L169.516965625,92.38973220189412L169.52335694444443,104.21420872211456L170.52679409722225,113.44437619050345L170.79522951388887,131.86309715112048L170.80162083333332,149.77347115675607L171.21705659722224,115.05038261413574L171.2554045138889,99.66131150722504L171.3832309027778,96.6588572661082L171.42157881944445,92.504141330719L171.55579652777777,85.18097241719563L171.59414444444445,90.99553505579631L171.9776236111111,79.94591077168783L172.35471145833333,123.50909729798636L172.55923368055556,53.73571713765462L172.60397291666666,150.3053915500641L173.97171527777778,121.781085729599L174.1314982638889,112.32323706150055L174.21458541666667,113.5197385152181L174.38715104166664,86.9576664765676L174.43189027777777,127.71584828694661L174.5341513888889,116.62036657333374L174.58528194444446,94.66867764790852L174.67476041666666,112.60931849479675L174.8537173611111,103.30854793389638L175.29471840277776,126.33977373441061L175.3138923611111,131.2384420633316L175.58232777777778,132.712291876475L175.80602395833333,126.280646721522L176.04250277777777,119.10215377807617L176.62411284722225,103.41748277346292L176.72637395833334,110.3111837307612L177.41024513888888,140.70416808128357L177.454984375,128.10215493043265L177.5316802083333,130.76499223709106L177.85763749999998,141.93212032318115L177.93433333333334,98.18650046984355L178.50955208333335,110.22883494695027L178.5287260416667,81.53671344121297L179.46825,95.52695711453755L179.4938152777778,148.5896297295888L179.50020659722222,147.64577786127725L179.60885902777778,126.18050356705983L179.70472881944443,123.7840191523234L179.76864201388886,133.84323080380756L179.83894652777778,113.21123242378235L179.87090312499998,97.89393663406372L179.90285972222222,100.54618875185648L180.12016458333332,132.0282636086146L180.1840777777778,113.90268087387085L180.35025208333334,123.55371216932932L180.63786145833333,88.08403372764587L180.78486180555555,112.6870838801066L181.11081909722222,143.43114952246347L181.2642107638889,125.73084990183511L181.38564583333334,133.98096720377603L181.47512430555554,89.6607228120168L181.68603784722222,127.22077091534932L182.40825694444445,109.47538753350575L182.72143159722225,135.38598398367563L183.2391284722222,173.03032676378885L183.30943298611112,112.41053263346353L183.437259375,147.610236008962L183.82073854166666,86.19656443595886L183.90382569444444,117.79451370239258L184.14030451388888,137.75897701581317L184.26813090277778,165.96817711989084L184.33843541666667,135.01884321371713L184.95200208333333,152.4739368756612L185.853178125,94.22881205876668L186.10243958333334,123.00413807233174L186.28778784722223,117.56010393301645L186.53704930555557,146.03153069814047L186.8438326388889,111.24046484629312L187.15061597222223,133.35835178693134L187.1633986111111,115.8429588874181L187.21452916666667,114.74687019983926L187.40626874999998,94.23263351122537L187.55326909722223,114.632847905159L187.64274756944445,123.74227623144785L188.00705277777777,101.47582153479259L188.62061944444443,158.32780420780182L188.90822881944445,139.9833905696869L188.93379409722223,133.05237770080566L189.3172732638889,118.03549965222676L189.61127395833333,68.1104036172231L189.80301354166667,128.15708537896472L189.94362256944444,113.11797022819519L189.994753125,118.46959789594014L190.7744940972222,101.99276089668274L190.96623368055555,160.7745184501012L191.10684270833332,119.94668304920197L191.31775625,99.7087279955546L191.5031045138889,125.18496831258139L191.7907138888889,142.3818325996399L192.03997534722222,114.90177969137827L192.58962881944444,145.39643108844757L193.05619513888888,126.37394408384958L193.215978125,167.21905807654062L193.29906527777777,103.4452058871587L193.3565871527778,128.29982717831928L193.86150138888888,112.69567628701527L194.23858923611112,123.56286724408467L194.96719965277777,149.200745622317L195.06306944444444,123.56317202250162L195.56798368055556,128.96545151869455L195.96424548611114,133.1552638610204L196.12402847222222,100.61471700668335L196.69285590277778,137.32090493043262L196.92933472222222,110.1415745417277L197.1530309027778,139.04387593269348L197.36394444444443,118.13551386197408L197.6259885416667,139.4485161701838L198.31625104166667,135.13519823551178L198.41851215277777,140.64722140630084L198.5527298611111,148.22271168231964L198.6102517361111,120.44661343097687L198.71251284722223,122.71935780843098L199.11516597222223,134.1498730580012L199.12155729166668,135.7715404033661L199.21103576388887,100.77469050884247L199.91408090277778,130.62207460403442L199.99716805555556,85.83125233650208L200.06747256944445,132.9790784915288L200.7066045138889,115.19490619500478L201.13482291666668,104.28601920604706L201.40325833333335,117.72405127684274L202.41308680555554,133.3119903008143L202.9499576388889,133.88871312141418L202.96274027777778,154.22143081823984L203.21839305555554,127.90470540523529L203.224784375,128.75544746716815L203.23117569444446,104.18088237444559L203.33343680555558,116.21852795282999L203.41652395833336,82.35159715016682L203.42930659722222,130.52149772644043L204.06204722222222,128.57419808705646L205.02074513888888,120.11798024177551L205.42978958333336,143.3311939239502L205.4681375,114.53642070293427L205.50648541666666,102.21433480580647L205.53205069444445,97.21165498097737L205.53844201388887,111.7888198296229L206.01779097222223,116.3653608163198L206.27344374999998,110.05113740762074L206.62496631944444,148.64614268143973L207.32162013888887,124.27984674771626L207.3919246527778,105.63748876253764L207.4430552083333,85.68041046460469L207.7498385416667,169.68931059042612L207.90323020833333,149.2969266573588L208.1588829861111,125.45857727527618L208.17805694444445,139.9510137240092L208.3761878472222,145.3884716828664L208.44010104166668,90.34863114356995L208.48484027777778,143.11226924260455L208.59988402777776,136.5008517106374L208.9641892361111,119.87497806549072L209.092015625,105.88200310866038L209.11118958333333,134.67824161052704L209.24540729166668,176.1719709634781L209.7950607638889,133.48828117052713L210.37667083333335,112.69501984119415L210.38945347222221,150.61713298161823L210.59397569444445,111.5741620461146L210.70901944444444,154.6345696846644L212.5177628472222,119.55974340438843L212.68393715277776,148.5608281691869L212.96515520833336,106.30842328071594L213.31667777777776,131.59257113933563L213.71293958333334,140.9875299533208L213.79602673611112,138.89415939648944L214.384028125,101.21527115503946L214.56937638888888,134.5029588540395L214.81863784722222,154.65375900268555L215.2340736111111,130.27878860632578L216.60820729166667,108.29634050528207L217.1131215277778,132.65111347039542L217.27929583333332,148.25337707996368L217.41990486111112,122.19406048456827L217.54133993055558,121.16857488950095L217.66916631944443,129.82016742229462L217.70112291666666,135.18604934215546L217.80338402777778,109.25059000651041L217.8800798611111,131.75491253534952L217.9823409722222,114.93871649106343L218.15490659722224,94.68637824058533L218.58951631944447,130.81893801689148L218.90269097222222,128.48669151465097L218.985778125,118.61585636933644L219.03690868055557,141.73077901204425L219.64408402777778,118.56101969877878L220.10425902777777,132.15008119742075L220.31517256944446,100.75333257516225L220.35991180555556,164.1107988357544L220.41743368055558,100.7097961505254L220.73699965277777,133.8799448808034L220.7561736111111,120.13046443462372L220.89039131944446,147.53414690494537L220.9670871527778,134.13111746311188L221.08852222222222,121.80011093616486L221.20995729166665,116.37105782826742L222.07917673611112,133.86152923107147L222.5968736111111,149.58054641882578L222.60326493055555,153.73059689998627L222.82056979166668,85.01414140065512L222.94200486111112,145.52277346452075L223.23600555555555,120.09409030278523L223.69618055555557,133.6731292804082L223.72813715277778,152.65424847602844L223.89431145833333,141.87927643458048L224.18831215277777,149.63497281074524L224.28418194444444,133.73654663562775L224.57179131944443,157.6190185546875L224.8082701388889,138.02522440751392L225.083096875,159.80815986792246L225.21092326388887,120.22842725118001L225.24927118055555,156.3989319403966L225.33235833333333,133.1868787606557L225.51131527777775,153.76502513885498L225.78614201388888,165.844167470932L226.0417947916667,144.51382795969644L226.47001319444445,142.12927679220834L226.62979618055556,142.23012328147888L226.67453541666669,130.90361952781677L226.70010069444444,155.26862601439157L227.33284131944444,111.20595455169678L227.35201527777778,137.64888167381287L227.60766805555554,149.59619561831155L228.20845208333333,142.276660601298L228.29793055555555,161.44809047381082L228.4065829861111,128.33187580108643L228.41297430555554,143.7923002243042L228.6814097222222,174.40350592136383L229.3141503472222,160.22507329781848L229.4867159722222,135.0406817595164L230.4198486111111,109.06351466973622L230.75858854166668,101.30434850851695L231.44885104166667,128.11665534973145L231.51915555555556,121.63767576217651L232.30528784722225,129.35072660446167L232.68237569444443,129.0446001291275L232.9188545138889,156.65855626265207L233.05307222222223,117.79242714246114L233.28955104166667,110.333291888237L233.51963854166667,155.02594033877054L233.5260298611111,134.9606305360794L233.68581284722222,154.42179918289185L234.08207465277778,132.3193738857905L234.53585833333332,139.2237889766693L234.70203263888888,141.131139198939L234.81068506944445,150.29046912988028L234.95768541666666,128.62631519635516L235.2516861111111,132.23694304625192L235.667121875,131.91813309987384L235.71186111111112,135.73048909505206L235.76299166666666,122.43217448393503L236.069775,116.47549132506052L236.12729687499998,147.8426295518875L236.50438472222223,149.31128640969592L236.587471875,129.27929123242694L237.51421319444444,147.36233393351236L237.59090902777777,142.73647745450336L237.80182256944445,145.83798468112946L237.81460520833332,118.80879282951355L238.07025798611113,158.15631945927936L238.48569375000002,120.25888164838155L238.9586513888889,124.24494961897531L239.2590434027778,98.45207969347636L239.4891309027778,104.21177049477895L239.67447916666669,98.59872500101726L239.85982743055555,160.71322282155353L239.94291458333333,165.86940546830496L239.96208854166667,151.25600715478262L240.383915625,155.94638288021088L240.40308958333333,162.6436189810435L240.67791631944445,165.05677243073782L240.92717777777779,170.88850816090903L240.99109097222222,137.5890396038691L241.3490048611111,152.397038936615L242.19265902777778,152.2821843624115L242.2373982638889,131.90392573674518L242.24378958333335,122.30467160542806L242.28852881944442,132.62479702631632L242.70396458333332,161.4214809735616L242.88292152777777,163.36125493049622L242.95961736111113,140.5986444155375L243.0427045138889,138.11683376630145L243.08744374999998,161.28460029760996L243.605140625,155.7885311047236L243.81605416666667,132.59445985158285L243.84161944444446,171.70193831125894L244.01418506944444,115.7204262415568L244.02696770833333,142.04218049844104L244.45518611111112,156.48980279763538L244.60218645833334,106.50627136230469L245.04957881944443,149.8249787092209L245.1134920138889,153.77487182617188L245.22214444444444,156.71326398849487L245.26688368055554,141.07149640719095L245.28605763888888,129.71458514531452L245.3755361111111,143.8440304994583L245.44584062500002,145.79454203446704L246.31506006944443,117.53915627797446L246.5515388888889,164.01372690995532L246.90306145833335,150.7494537035624L246.94780069444442,129.6817276875178L247.36323645833332,143.98678402105966L247.52301944444443,156.90760711828867L247.58054131944445,130.39496779441833L247.65723715277778,104.79189276695251L247.7786722222222,72.96578168869019L247.88732465277778,115.2808771530787L247.98319444444445,140.8384464184443L248.2324559027778,164.04182513554892L248.30915173611112,147.37389206886292L248.4689347222222,111.95866346359253L248.66067430555555,118.24823498725891L248.70541354166667,132.1928205092748L249.07611006944444,138.90730003515878L249.37011076388887,141.81360840797424L249.49154583333336,158.75381410121918L249.53628506944443,119.15003915627798L249.8302857638889,124.41439469655356L250.162634375,132.98458794752756L250.18180833333335,158.80983471870422L250.4055045138889,110.47302107016245L250.8401142361111,132.67388979593912L250.99989722222222,126.10139012336731L251.21720208333332,136.84523959954578L251.2363760416667,124.34032181898752L251.56872465277777,163.07567755381265L251.57511597222222,134.92110311985016L251.70933368055557,142.6916750272115L252.06085625,135.38399120171863L252.233421875,176.43016517162323L252.61690104166667,121.84552292029062L252.6232923611111,147.82577296098074L252.78946666666667,132.04007963339487L252.8661625,180.99820752938587L252.96203229166665,133.9528924226761L253.08985868055555,110.24317125479381L253.14738055555554,104.18356676896413L253.20490243055556,148.75187734762827L253.39664201388888,123.29508423805237L253.70981666666665,155.04341820875803L254.0613392361111,121.4690395196279L254.26586145833335,135.02878367900848L254.40647048611112,132.1580757697423L254.87303680555553,113.75155766805013L255.37155972222223,127.66589979330698L255.84451736111112,178.74977509180704L256.1576920138889,154.91153120994568L256.3877795138889,111.16074184576671L256.78404131944444,119.04077609380086L257.27617291666667,174.3183437983195L257.295346875,129.9440715710322L257.7810871527778,140.8048739035924L257.9153048611111,162.6389886935552L257.9664354166667,144.95606144269306L258.04952256944443,157.07046429316202L258.0623052083333,166.45397047201791L258.100653125,159.7909516096115L258.5096975694444,118.93250942230225L258.72700243055556,178.71879319349924L258.73978506944445,127.6914777358373L258.7461763888889,167.71515528361002L259.2958298611111,148.1000852584839L259.3150038194444,144.06562785307565L259.48756944444443,132.28219091892242L260.5804850694444,146.83476249376932L260.62522430555555,110.2490206559499L260.861703125,140.68496704101562L261.0470513888889,128.0017538865407L261.0790079861111,153.69019031524658L261.3474434027778,181.1314543088277L261.7437052083333,132.18779166539508L261.85235763888886,161.26768509546915L261.8587489583333,148.54625741640726L262.2805760416667,158.00213674704233L262.3317065972222,122.4632853269577L262.40840243055555,93.19786389668782L262.64488125,148.4469348192215L262.6512725694445,139.8713493347168L262.6704465277778,155.51840364933014L263.0922736111111,153.817786971728L263.42462222222224,190.3849490483602L263.5204920138889,149.15847520033518L263.6163618055556,146.82680308818817L263.7186229166667,150.11280675729117L263.8017100694445,141.4471826950709L264.02540625,128.3919757604599L264.14684131944443,162.45137413342792L264.19158055555556,96.84477210044861L265.68075798611113,107.9787145058314L266.06423715277776,109.33390001455943L266.2559767361111,159.87481256326038L266.37741180555554,128.1481530268987L266.9462392361111,148.48796268304187L267.19550069444443,123.57601960500081L267.2210659722222,121.3119731346766L267.27858784722224,186.6178995370865L267.31693576388886,157.61354426542917L267.47671875000003,146.37574275334674L267.8410239583333,156.4105721314748L268.1158506944444,114.23433840274811L268.7741565972222,135.22229452927905L269.16402708333334,130.87209840615589L269.5155496527778,160.4795515537262L269.7264631944444,128.99366696675617L269.9629420138889,164.31372265021005L270.4231170138889,135.73582271734873L270.46146493055556,127.67045974731445L270.5189868055555,160.27529140313464L270.8641180555556,149.4025675455729L271.34346701388887,170.25554200013477L271.40738020833334,134.05480563640594L271.560771875,151.10822478930154L271.5991197916667,146.27473215262094L271.62468506944447,139.3183406194051" fill="none"></path></g></g></g></g></g></g><g transform="translate(42, 177)" clip-path="url(#clip_1)"><clipPath id="clip_1"><rect width="287" height="23"></rect></clipPath><g><g><line x1="0" y1="0" x2="0" y2="5" style="visibility: inherit;" fill="rgb(0, 0, 0)" stroke="rgb(204, 204, 204)" stroke-width="1px"></line><line x1="31.95659722222222" y1="0" x2="31.95659722222222" y2="5" style="visibility: inherit;" fill="rgb(0, 0, 0)" stroke="rgb(204, 204, 204)" stroke-width="1px"></line><line x1="63.91319444444444" y1="0" x2="63.91319444444444" y2="5" style="visibility: inherit;" fill="rgb(0, 0, 0)" stroke="rgb(204, 204, 204)" stroke-width="1px"></line><line x1="95.86979166666666" y1="0" x2="95.86979166666666" y2="5" style="visibility: inherit;" fill="rgb(0, 0, 0)" stroke="rgb(204, 204, 204)" stroke-width="1px"></line><line x1="127.82638888888889" y1="0" x2="127.82638888888889" y2="5" style="visibility: inherit;" fill="rgb(0, 0, 0)" stroke="rgb(204, 204, 204)" stroke-width="1px"></line><line x1="159.78298611111111" y1="0" x2="159.78298611111111" y2="5" style="visibility: inherit;" fill="rgb(0, 0, 0)" stroke="rgb(204, 204, 204)" stroke-width="1px"></line><line x1="191.73958333333331" y1="0" x2="191.73958333333331" y2="5" style="visibility: inherit;" fill="rgb(0, 0, 0)" stroke="rgb(204, 204, 204)" stroke-width="1px"></line><line x1="223.69618055555557" y1="0" x2="223.69618055555557" y2="5" style="visibility: inherit;" fill="rgb(0, 0, 0)" stroke="rgb(204, 204, 204)" stroke-width="1px"></line><line x1="255.65277777777777" y1="0" x2="255.65277777777777" y2="5" style="visibility: inherit;" fill="rgb(0, 0, 0)" stroke="rgb(204, 204, 204)" stroke-width="1px"></line><line x1="287.609375" y1="0" x2="287.609375" y2="5" style="visibility: inherit;" fill="rgb(0, 0, 0)" stroke="rgb(204, 204, 204)" stroke-width="1px"></line></g><g transform="translate(0, 8)"><text x="0" y="0" dx="0em" dy="0.95em" style="text-anchor: middle; visibility: hidden; font-family: &quot;Helvetica Neue&quot;, sans-serif; font-size: 12px; font-weight: 200;" fill="rgb(50, 49, 63)" stroke="none" stroke-width="1px">-5k</text><text x="31.95659722222222" y="0" dx="0em" dy="0.95em" style="text-anchor: middle; visibility: inherit; font-family: &quot;Helvetica Neue&quot;, sans-serif; font-size: 12px; font-weight: 200;" fill="rgb(50, 49, 63)" stroke="none" stroke-width="1px">0</text><text x="63.91319444444444" y="0" dx="0em" dy="0.95em" style="text-anchor: middle; visibility: inherit; font-family: &quot;Helvetica Neue&quot;, sans-serif; font-size: 12px; font-weight: 200;" fill="rgb(50, 49, 63)" stroke="none" stroke-width="1px">5k</text><text x="95.86979166666666" y="0" dx="0em" dy="0.95em" style="text-anchor: middle; visibility: inherit; font-family: &quot;Helvetica Neue&quot;, sans-serif; font-size: 12px; font-weight: 200;" fill="rgb(50, 49, 63)" stroke="none" stroke-width="1px">10k</text><text x="127.82638888888889" y="0" dx="0em" dy="0.95em" style="text-anchor: middle; visibility: inherit; font-family: &quot;Helvetica Neue&quot;, sans-serif; font-size: 12px; font-weight: 200;" fill="rgb(50, 49, 63)" stroke="none" stroke-width="1px">15k</text><text x="159.78298611111111" y="0" dx="0em" dy="0.95em" style="text-anchor: middle; visibility: inherit; font-family: &quot;Helvetica Neue&quot;, sans-serif; font-size: 12px; font-weight: 200;" fill="rgb(50, 49, 63)" stroke="none" stroke-width="1px">20k</text><text x="191.73958333333331" y="0" dx="0em" dy="0.95em" style="text-anchor: middle; visibility: inherit; font-family: &quot;Helvetica Neue&quot;, sans-serif; font-size: 12px; font-weight: 200;" fill="rgb(50, 49, 63)" stroke="none" stroke-width="1px">25k</text><text x="223.69618055555557" y="0" dx="0em" dy="0.95em" style="text-anchor: middle; visibility: inherit; font-family: &quot;Helvetica Neue&quot;, sans-serif; font-size: 12px; font-weight: 200;" fill="rgb(50, 49, 63)" stroke="none" stroke-width="1px">30k</text><text x="255.65277777777777" y="0" dx="0em" dy="0.95em" style="text-anchor: middle; visibility: inherit; font-family: &quot;Helvetica Neue&quot;, sans-serif; font-size: 12px; font-weight: 200;" fill="rgb(50, 49, 63)" stroke="none" stroke-width="1px">35k</text><text x="287.609375" y="0" dx="0em" dy="0.95em" style="text-anchor: middle; visibility: hidden; font-family: &quot;Helvetica Neue&quot;, sans-serif; font-size: 12px; font-weight: 200;" fill="rgb(50, 49, 63)" stroke="none" stroke-width="1px">40k</text></g><line x1="0" y1="0" x2="287.609375" y2="0" fill="rgb(0, 0, 0)" stroke="rgb(204, 204, 204)" stroke-width="1px"></line></g></g></g></g></svg>